<svg width="56" height="56" viewBox="0 0 56 56" fill="none" xmlns="http://www.w3.org/2000/svg">
<path d="M13.3494 3H15.6397V5.27089H17.7348V3H20.0252V9.87682H17.7349V7.57405H15.6398V9.87682H13.3496L13.3494 3ZM23.037 5.28045H21.0208V3H27.3448V5.28045H25.3276V9.87682H23.0372L23.037 5.28045ZM28.3484 3H30.7365L32.2055 5.41631L33.6732 3H36.0622V9.87682H33.7814V6.46829L32.2056 8.91338H32.1663L30.5894 6.46829V9.87682H28.3485L28.3484 3ZM37.2021 3H39.4931V7.60374H42.7139V9.87682H37.2021V3Z" fill="#2EF171"/>
<path fill-rule="evenodd" clip-rule="evenodd" d="M10 13.0218L13.2761 49.8996L27.9779 53.9955L42.7203 49.8938L46 13.0218H10ZM22.0363 29.7146L21.6244 25.083H38.8705L39.274 20.5601H16.699L17.9146 34.2374H33.534L33.0109 40.1033L27.9844 41.4648V41.4652L27.9804 41.4663L22.961 40.1062L22.6401 36.499H18.116L18.7474 43.6006L27.9793 46.1726L28 46.1668V46.166L37.2236 43.6006L38.3504 30.9291L38.4604 29.7146H22.0363Z" fill="#2EF171"/>
</svg>
