<svg width="56" height="56" viewBox="0 0 56 56" fill="none" xmlns="http://www.w3.org/2000/svg">
<path fill-rule="evenodd" clip-rule="evenodd" d="M28 13C21.0667 13 16.7333 16.4444 15 23.3333C17.6 19.8889 20.6333 18.5972 24.1 19.4583C26.0779 19.9492 27.4916 21.3757 29.0564 22.9535C31.6053 25.5244 34.5559 28.5 41 28.5C47.9333 28.5 52.2667 25.0556 54 18.1667C51.4 21.6111 48.3667 22.9028 44.9 22.0417C42.9221 21.5508 41.5084 20.1243 39.9436 18.5465C37.3947 15.9756 34.4441 13 28 13ZM15 28.5C8.06667 28.5 3.73333 31.9444 2 38.8333C4.6 35.3889 7.63333 34.0972 11.1 34.9583C13.0779 35.4501 14.4916 36.8757 16.0564 38.4535C18.6053 41.0244 21.5559 44 28 44C34.9333 44 39.2667 40.5556 41 33.6667C38.4 37.1111 35.3667 38.4028 31.9 37.5417C29.9221 37.0508 28.5084 35.6243 26.9436 34.0465C24.3947 31.4756 21.4441 28.5 15 28.5Z" fill="#2EF171"/>
</svg>
