<svg width="56" height="56" viewBox="0 0 56 56" fill="none" xmlns="http://www.w3.org/2000/svg">
<path d="M18.4723 3H23.9309V5.29102H20.755V7.58203H23.9309V9.87305H18.4723V3Z" fill="#2EF171"/>
<path d="M25.0226 3H30.4811V4.99219H27.3052V5.39063H30.4811V9.97266H25.0226V7.88086H28.1985V7.48242H25.0226V3Z" fill="#2EF171"/>
<path d="M31.5728 3H37.0314V4.99219H33.8555V5.39063H37.0314V9.97266H31.5728V7.88086H34.7487V7.48242H31.5728V3Z" fill="#2EF171"/>
<path fill-rule="evenodd" clip-rule="evenodd" d="M42.7203 49.898L46 13.0227H10L13.2762 49.9038L27.978 54L42.7203 49.898ZM39.274 20.5616H16.6989L17.1086 25.085H34.3349L33.9248 29.7169L17.5108 29.7169L17.9148 34.2402L33.534 34.2402L33.0108 40.1066L27.9843 41.4686L27.9801 41.4697L22.9608 40.1095L22.6399 36.5019H18.1158L18.7472 43.6041L27.9791 46.1764L27.9998 46.1706V46.1699L37.2236 43.6042L38.3504 30.9316L38.4604 29.7169L39.274 20.5616Z" fill="#2EF171"/>
</svg>
