<svg width="56" height="56" viewBox="0 0 56 56" fill="none" xmlns="http://www.w3.org/2000/svg">
<path d="M11.1917 35.6523L16.0933 3.95971C16.1287 3.72478 16.237 3.50709 16.4028 3.33763C16.5685 3.16817 16.7831 3.05557 17.0162 3.01587C17.2492 2.97617 17.4888 3.01139 17.7008 3.11651C17.9128 3.22163 18.0864 3.3913 18.1969 3.60136L23.4674 13.5412L11.1917 35.6523ZM46 43.3421L41.3326 14.1767C41.2983 13.9722 41.2088 13.7812 41.0738 13.6245C40.9388 13.4677 40.7636 13.3513 40.5672 13.2879C40.3709 13.2244 40.161 13.2165 39.9604 13.2648C39.7599 13.3132 39.5764 13.416 39.4301 13.5621L10 43.3421L26.2839 52.5674C26.7861 52.851 27.3525 53 27.9285 53C28.5045 53 29.0709 52.851 29.5731 52.5674L46 43.3421ZM32.7668 17.8914L28.9948 10.637C28.8996 10.4546 28.7566 10.3018 28.5813 10.1952C28.4059 10.0886 28.2049 10.0322 28 10.0322C27.7951 10.0322 27.5941 10.0886 27.4187 10.1952C27.2434 10.3018 27.1004 10.4546 27.0052 10.637L10.4456 40.467L32.7668 17.8914Z" fill="#2EF171"/>
</svg>
