<svg width="56" height="56" viewBox="0 0 56 56" fill="none" xmlns="http://www.w3.org/2000/svg">
<path d="M52.5144 23.6143C52.3732 23.5 51.0948 22.5445 48.3511 22.5445C47.6413 22.5445 46.9066 22.6139 46.1968 22.7323C45.6779 19.1715 42.6727 17.4483 42.5524 17.3584L41.8177 16.9378L41.3445 17.6116C40.7551 18.5181 40.3026 19.5431 40.0453 20.5885C39.5472 22.6139 39.8543 24.5209 40.8962 26.1502C39.6426 26.8485 37.6087 27.0118 37.1812 27.0363H3.58852C2.71269 27.0363 2.0029 27.7346 2.0029 28.5962C1.95724 31.4832 2.45119 34.3661 3.46814 37.0898C4.62622 40.0667 6.35297 42.2799 8.57781 43.6275C11.0849 45.1384 15.1776 46 19.7892 46C21.8688 46 23.9525 45.8122 26.0113 45.4406C28.8754 44.9301 31.6191 43.9501 34.1469 42.5331C36.2306 41.3448 38.0985 39.8339 39.6841 38.0658C42.3573 35.1093 43.9429 31.8058 45.101 28.8739C45.267 28.8739 45.4081 28.8739 45.5742 28.8739C48.4839 28.8739 50.2812 27.7346 51.2733 26.7545C51.9374 26.1502 52.4313 25.4029 52.7883 24.5658L53 23.9614L52.5144 23.6143ZM31.7228 26.0808H36.2182C36.4299 26.0808 36.6208 25.9174 36.6208 25.6847V21.7278C36.6208 21.5195 36.4548 21.3317 36.2182 21.3317H31.7228C31.5112 21.3317 31.3202 21.495 31.3202 21.7278V25.6847C31.3451 25.9174 31.5112 26.0808 31.7228 26.0808ZM25.4551 14.7491H29.9504C30.1621 14.7491 30.3531 14.5858 30.3531 14.353V10.3961C30.3531 10.1878 30.1621 10 29.9504 10H25.4551C25.2434 10 25.0525 10.1633 25.0525 10.3961V14.353C25.0525 14.5613 25.2392 14.7491 25.4551 14.7491ZM25.4551 20.4251H29.9504C30.1621 20.4251 30.3531 20.2373 30.3531 20.029V16.0721C30.3531 15.8639 30.1621 15.676 29.9504 15.676H25.4551C25.2434 15.676 25.0525 15.8394 25.0525 16.0721V20.029C25.0525 20.2414 25.2392 20.4251 25.4551 20.4251ZM19.233 20.4251H23.7283C23.94 20.4251 24.131 20.2373 24.131 20.029V16.0721C24.131 15.8639 23.9649 15.676 23.7283 15.676H19.233C19.0213 15.676 18.8304 15.8394 18.8304 16.0721V20.029C18.8304 20.2414 18.9964 20.4251 19.233 20.4251ZM12.9154 20.4251H17.4108C17.6225 20.4251 17.8134 20.2373 17.8134 20.029V16.0721C17.8134 15.8639 17.6474 15.676 17.4108 15.676H12.9154C12.7037 15.676 12.5128 15.8394 12.5128 16.0721V20.029C12.5377 20.2414 12.7037 20.4251 12.9154 20.4251ZM25.4551 26.0808H29.9504C30.1621 26.0808 30.3531 25.9174 30.3531 25.6847V21.7278C30.3531 21.5195 30.187 21.3317 29.9504 21.3317H25.4551C25.2434 21.3317 25.0525 21.495 25.0525 21.7278V25.6847C25.0525 25.9174 25.2392 26.0808 25.4551 26.0808ZM19.233 26.0808H23.7283C23.94 26.0808 24.131 25.9174 24.131 25.6847V21.7278C24.131 21.5195 23.9649 21.3317 23.7283 21.3317H19.233C19.0213 21.3317 18.8304 21.495 18.8304 21.7278V25.6847C18.8304 25.9174 18.9964 26.0808 19.233 26.0808ZM12.9154 26.0808H17.4108C17.6225 26.0808 17.8134 25.9174 17.8134 25.6847V21.7278C17.8134 21.5195 17.6474 21.3317 17.4108 21.3317H12.9154C12.7037 21.3317 12.5128 21.495 12.5128 21.7278V25.6847C12.5377 25.9174 12.7037 26.0808 12.9154 26.0808ZM6.71824 26.0808H11.2136C11.4253 26.0808 11.6162 25.9174 11.6162 25.6847V21.7278C11.6162 21.5195 11.4502 21.3317 11.2136 21.3317H6.71824C6.50655 21.3317 6.31561 21.495 6.31561 21.7278V25.6847C6.34052 25.9174 6.50655 26.0808 6.71824 26.0808Z" fill="#2EF171"/>
</svg>
