<svg width="56" height="56" viewBox="0 0 56 56" fill="none" xmlns="http://www.w3.org/2000/svg">
<path d="M28.0003 32.3968C30.4616 32.3968 32.4569 30.4282 32.4569 27.9999C32.4569 25.5715 30.4616 23.6029 28.0003 23.6029C25.5391 23.6029 23.5438 25.5715 23.5438 27.9999C23.5438 30.4282 25.5391 32.3968 28.0003 32.3968Z" fill="#2EF171"/>
<path fill-rule="evenodd" clip-rule="evenodd" d="M23.4538 20.2295C22.6244 21.4299 21.8142 22.7004 21.035 24.0319C20.2558 25.3635 19.5458 26.6911 18.9068 28C19.5458 29.3089 20.2558 30.6365 21.035 31.9681C21.8142 33.2997 22.6245 34.5701 23.4539 35.7705C24.9219 35.879 26.4419 35.936 28 35.936C29.5587 35.936 31.0792 35.8789 32.5478 35.7704C33.3772 34.57 34.1875 33.2996 34.9667 31.968C35.7459 30.6364 36.4559 29.3089 37.0948 28C36.4559 26.6911 35.7459 25.3636 34.9667 24.032C34.1875 22.7005 33.3773 21.4301 32.5479 20.2297C31.0793 20.1212 29.5587 20.064 28 20.064C26.4419 20.064 24.9219 20.1211 23.4538 20.2295ZM20.6653 20.5039C20.1497 21.2991 19.6445 22.1184 19.1523 22.9595C18.6601 23.8006 18.1936 24.642 17.7534 25.4801C17.135 24.0321 16.6093 22.6202 16.1789 21.2657C17.583 20.9562 19.0851 20.6995 20.6653 20.5039ZM25.0889 17.9841C26.0444 17.9412 27.0159 17.9192 28 17.9192C28.9847 17.9192 29.9567 17.9412 30.9127 17.9842C29.9509 16.7318 28.9745 15.5766 28.0008 14.5316C27.0271 15.5766 26.0507 16.7317 25.0889 17.9841ZM26.4841 12.9904C25.0527 14.518 23.627 16.2597 22.2524 18.1764C19.8827 18.3926 17.6411 18.7399 15.5844 19.1991C15.35 18.2849 15.1644 17.4051 15.0283 16.5673C14.6742 14.3866 14.6659 12.5487 14.969 11.1507C15.2721 9.75252 15.8552 8.91351 16.5878 8.49619C17.3204 8.07887 18.3484 8.00016 19.7272 8.44025C21.1058 8.8803 22.7149 9.80637 24.452 11.1993C25.1194 11.7344 25.7988 12.333 26.4841 12.9904ZM29.5174 12.9904C30.949 14.5181 32.3747 16.2598 33.7493 18.1766C36.119 18.3928 38.3606 18.7402 40.4172 19.1995C40.6516 18.2851 40.8373 17.4051 40.9733 16.5672C41.3274 14.3865 41.3358 12.5486 41.0327 11.1506C40.7296 9.75242 40.1465 8.9134 39.4139 8.49609C38.6813 8.07877 37.6533 8.00006 36.2745 8.44015C34.8958 8.88019 33.2867 9.80627 31.5497 11.1992C30.8823 11.7343 30.2028 12.3329 29.5174 12.9904ZM42.5243 19.7271C42.7742 18.7523 42.9732 17.8095 43.1199 16.9065C43.4986 14.5745 43.5374 12.4496 43.1585 10.702C42.7797 8.95448 41.9518 7.46507 40.5008 6.63858C39.0499 5.81208 37.3286 5.84937 35.6054 6.39941C33.8819 6.94951 32.0362 8.04514 30.1786 9.53471C29.4594 10.1115 28.7314 10.7529 28.0008 11.4537C27.2702 10.7529 26.5423 10.1115 25.8231 9.53481C23.9655 8.04524 22.1198 6.94961 20.3963 6.39952C18.6731 5.84947 16.9518 5.81219 15.5008 6.63868C14.0499 7.46517 13.222 8.95458 12.8432 10.7021C12.4643 12.4497 12.5031 14.5746 12.8818 16.9066C13.0284 17.8095 13.2274 18.7521 13.4773 19.7267C12.4965 20.0006 11.5693 20.3019 10.7032 20.6282C8.46694 21.4706 6.58237 22.4999 5.23781 23.6975C3.89337 24.8949 3 26.3471 3 28C3 29.653 3.89337 31.1051 5.23781 32.3026C6.58237 33.5001 8.46694 34.5294 10.7032 35.3719C11.5693 35.6981 12.4965 35.9995 13.4772 36.2734C13.2274 37.248 13.0284 38.1905 12.8818 39.0934C12.5031 41.4254 12.4643 43.5503 12.8432 45.2979C13.222 47.0454 14.0499 48.5348 15.5008 49.3613C16.9518 50.1878 18.6731 50.1505 20.3963 49.6005C22.1198 49.0504 23.9655 47.9548 25.8231 46.4652C26.5423 45.8885 27.2702 45.2471 28.0008 44.5463C28.7314 45.2471 29.4594 45.8885 30.1786 46.4653C32.0362 47.9549 33.8819 49.0505 35.6054 49.6006C37.3286 50.1506 39.0499 50.1879 40.5008 49.3614C41.9518 48.5349 42.7797 47.0455 43.1585 45.298C43.5374 43.5504 43.4986 41.4255 43.1199 39.0935C42.9732 38.1905 42.7742 37.2477 42.5243 36.2729C43.5045 35.9992 44.4312 35.698 45.2968 35.3719C47.5331 34.5294 49.4176 33.5001 50.7622 32.3026C52.1066 31.1051 53 29.653 53 28C53 26.3471 52.1066 24.8949 50.7622 23.6975C49.4176 22.4999 47.5331 21.4706 45.2968 20.6282C44.4312 20.3021 43.5045 20.0009 42.5243 19.7271ZM39.8227 21.266C38.4186 20.9565 36.9166 20.6998 35.3364 20.5041C35.852 21.2993 36.3572 22.1185 36.8494 22.9596C37.3415 23.8007 37.808 24.642 38.2482 25.4801C38.8666 24.0322 39.3923 22.6204 39.8227 21.266ZM39.4977 28C40.4927 25.8672 41.3086 23.7783 41.9338 21.7913C42.8533 22.0482 43.7181 22.3294 44.5214 22.632C46.6125 23.4198 48.2299 24.3316 49.3055 25.2896C50.3812 26.2477 50.8261 27.1654 50.8261 28C50.8261 28.8347 50.3812 29.7524 49.3055 30.7105C48.2299 31.6684 46.6125 32.5803 44.5214 33.3681C43.7181 33.6707 42.8533 33.9519 41.9338 34.2087C41.3087 32.2218 40.4928 30.1328 39.4977 28ZM38.2482 30.5199C37.8081 31.358 37.3415 32.1993 36.8494 33.0404C36.3572 33.8815 35.852 34.7008 35.3364 35.4959C36.9165 35.3003 38.4186 35.0436 39.8227 34.7341C39.3923 33.3796 38.8666 31.9678 38.2482 30.5199ZM40.4172 36.8006C38.3606 37.2599 36.119 37.6073 33.7493 37.8235C32.3747 39.7402 30.9489 41.4819 29.5174 43.0096C30.2028 43.6671 30.8823 44.2656 31.5497 44.8008C33.2867 46.1937 34.8958 47.1198 36.2745 47.5599C37.6533 47.9999 38.6813 47.9212 39.4139 47.5039C40.1465 47.0866 40.7296 46.2476 41.0327 44.8494C41.3358 43.4514 41.3274 41.6135 40.9733 39.4328C40.8373 38.5949 40.6516 37.715 40.4172 36.8006ZM28.0008 41.4684C28.9745 40.4234 29.9509 39.2683 30.9127 38.0159C29.9566 38.0589 28.9846 38.0809 28 38.0809C27.0159 38.0809 26.0445 38.0589 25.089 38.016C26.0507 39.2683 27.0271 40.4234 28.0008 41.4684ZM20.6654 35.4962C20.1498 34.7009 19.6445 33.8816 19.1523 33.0405C18.6601 32.1994 18.1936 31.358 17.7534 30.5199C17.135 31.9679 16.6092 33.3799 16.1788 34.7344C17.583 35.0439 19.0852 35.3006 20.6654 35.4962ZM15.5844 36.8009C17.6411 37.2602 19.8827 37.6075 22.2525 37.8237C23.627 39.7403 25.0527 41.482 26.4841 43.0096C25.7988 43.667 25.1194 44.2656 24.452 44.8007C22.7149 46.1936 21.1058 47.1197 19.7272 47.5597C18.3484 47.9998 17.3204 47.9211 16.5878 47.5038C15.8552 47.0865 15.2721 46.2475 14.969 44.8493C14.6659 43.4513 14.6742 41.6134 15.0284 39.4327C15.1644 38.5949 15.35 37.7152 15.5844 36.8009ZM14.0677 34.2092C13.1477 33.9522 12.2823 33.6708 11.4786 33.3681C9.3875 32.5803 7.77008 31.6684 6.69451 30.7105C5.61882 29.7524 5.17391 28.8347 5.17391 28C5.17391 27.1654 5.61882 26.2477 6.69451 25.2896C7.77008 24.3316 9.3875 23.4198 11.4786 22.632C12.2823 22.3292 13.1477 22.0479 14.0677 21.7909C14.6929 23.778 15.5088 25.867 16.504 28C15.5088 30.133 14.6929 32.2221 14.0677 34.2092ZM28.0003 24.6753C26.1394 24.6753 24.6308 26.1638 24.6308 27.9999C24.6308 29.836 26.1394 31.3244 28.0003 31.3244C29.8613 31.3244 31.3699 29.836 31.3699 27.9999C31.3699 26.1638 29.8613 24.6753 28.0003 24.6753ZM22.4569 27.9999C22.4569 24.9792 24.9388 22.5304 28.0003 22.5304C31.0619 22.5304 33.5438 24.9792 33.5438 27.9999C33.5438 31.0205 31.0619 33.4693 28.0003 33.4693C24.9388 33.4693 22.4569 31.0205 22.4569 27.9999Z" fill="#2EF171"/>
</svg>
