<svg width="56" height="56" viewBox="0 0 56 56" fill="none" xmlns="http://www.w3.org/2000/svg">
<path fill-rule="evenodd" clip-rule="evenodd" d="M28.0182 6C15.8427 6 6 16.0833 6 28.5577C6 38.5292 12.3066 46.9698 21.0554 49.9572C22.1493 50.1818 22.5499 49.4718 22.5499 48.8746C22.5499 48.3517 22.5139 46.5591 22.5139 44.6914C16.3889 46.0362 15.1135 42.0024 15.1135 42.0024C14.1292 39.3881 12.6707 38.7162 12.6707 38.7162C10.666 37.3343 12.8167 37.3343 12.8167 37.3343C15.0405 37.4837 16.2073 39.6498 16.2073 39.6498C18.1755 43.0854 21.347 42.1147 22.6229 41.517C22.805 40.0604 23.3887 39.0521 24.0084 38.492C19.1233 37.9691 13.9836 36.0271 13.9836 27.3624C13.9836 24.8975 14.8579 22.8808 16.2434 21.3124C16.0248 20.7523 15.2591 18.4364 16.4624 15.3367C16.4624 15.3367 18.3215 14.739 22.5134 17.6522C24.3081 17.1584 26.159 16.9072 28.0182 16.9051C29.8773 16.9051 31.7725 17.1668 33.5225 17.6522C37.7149 14.739 39.574 15.3367 39.574 15.3367C40.7774 18.4364 40.0112 20.7523 39.7926 21.3124C41.2145 22.8808 42.0528 24.8975 42.0528 27.3624C42.0528 36.0271 36.9131 37.9315 31.9915 38.492C32.7938 39.2015 33.486 40.5458 33.486 42.6748C33.486 45.6998 33.45 48.1275 33.45 48.8742C33.45 49.4718 33.8511 50.1818 34.9445 49.9576C43.6933 46.9693 49.9999 38.5292 49.9999 28.5577C50.036 16.0833 40.1572 6 28.0182 6Z" fill="#2EF171"/>
</svg>
