<svg width="56" height="56" viewBox="0 0 56 56" fill="none" xmlns="http://www.w3.org/2000/svg">
<path d="M28.2359 19.6595H23.5731V26.3315H27.5005C30.536 26.3315 32.2101 25.0931 32.2101 22.8794C32.2101 20.805 30.7707 19.6595 28.2359 19.6595Z" fill="#2EF171"/>
<path d="M23.5731 28.9787V36.3319H28.408C31.5687 36.3319 33.2428 35.047 33.2428 32.6321C33.2428 30.2171 31.5217 28.9787 28.2045 28.9787H23.5731Z" fill="#2EF171"/>
<path fill-rule="evenodd" clip-rule="evenodd" d="M12.8004 7C9.83331 7 7.63824 9.63324 7.73635 12.4888C7.8306 15.2319 7.70822 18.7852 6.82584 21.6825C5.94083 24.5887 4.44451 26.4257 2 26.6618V29.3382C4.44461 29.5743 5.94083 31.4113 6.82584 34.3175C7.70822 37.2148 7.8306 40.7681 7.73645 43.5113C7.63824 46.3668 9.83331 49 12.8004 49H43.2034C46.1704 49 48.3655 46.3668 48.2674 43.5113C48.1732 40.7681 48.2955 37.2148 49.1778 34.3175C50.0629 31.4113 51.5555 29.5743 54 29.3382V26.6618C51.5555 26.4257 50.0629 24.5887 49.1778 21.6825C48.2955 18.7852 48.1732 15.2319 48.2674 12.4888C48.3655 9.63324 46.1704 7 43.2034 7H12.8004ZM36.826 32.8488C36.826 36.7808 33.9313 39.1648 29.1277 39.1648H20.0681V16.8265H29.0808C33.0864 16.8265 35.7151 19.0248 35.7151 22.3995C35.7151 24.768 33.947 26.8888 31.6938 27.2603V27.3842C34.7606 27.7248 36.826 29.8766 36.826 32.8488Z" fill="#2EF171"/>
</svg>
