<svg width="24" height="24" viewBox="0 0 24 24" fill="none" xmlns="http://www.w3.org/2000/svg">
<path d="M8.29261 3C5.38743 3 3 5.38423 3 8.29261V15.7074C3 18.6126 5.38423 21 8.29261 21H15.7074C18.6126 21 21 18.6158 21 15.7074V8.29261C21 5.38743 18.6158 3 15.7074 3H8.29261ZM8.29261 4.63636H15.7074C17.7305 4.63636 19.3636 6.26953 19.3636 8.29261V15.7074C19.3636 17.7305 17.7305 19.3636 15.7074 19.3636H8.29261C6.26953 19.3636 4.63636 17.7305 4.63636 15.7074V8.29261C4.63636 6.26953 6.26953 4.63636 8.29261 4.63636ZM16.8324 6.42614C16.4201 6.42614 16.0909 6.75533 16.0909 7.16761C16.0909 7.5799 16.4201 7.90909 16.8324 7.90909C17.2447 7.90909 17.5739 7.5799 17.5739 7.16761C17.5739 6.75533 17.2447 6.42614 16.8324 6.42614ZM12 7.09091C9.29936 7.09091 7.09091 9.29936 7.09091 12C7.09091 14.7006 9.29936 16.9091 12 16.9091C14.7006 16.9091 16.9091 14.7006 16.9091 12C16.9091 9.29936 14.7006 7.09091 12 7.09091ZM12 8.72727C13.8185 8.72727 15.2727 10.1815 15.2727 12C15.2727 13.8185 13.8185 15.2727 12 15.2727C10.1815 15.2727 8.72727 13.8185 8.72727 12C8.72727 10.1815 10.1815 8.72727 12 8.72727Z" fill="#20D7FF"/>
</svg>
