<svg width="56" height="56" viewBox="0 0 56 56" fill="none" xmlns="http://www.w3.org/2000/svg">
<path d="M27.7381 6.00037C25.9238 6.0089 24.1912 6.16542 22.6666 6.4383C18.1755 7.24089 17.3601 8.92079 17.3601 12.0188V16.1104H27.9731V17.4742H13.3772C10.2927 17.4742 7.59191 19.3495 6.74713 22.9171C5.77268 27.0063 5.72946 29.558 6.74713 33.8279C7.50154 37.0061 9.30318 39.2707 12.3876 39.2707H16.0366V34.3659C16.0366 30.8224 19.0675 27.6968 22.6666 27.6968H33.2673C36.2181 27.6968 38.5738 25.2391 38.5738 22.2414V12.0188C38.5738 9.1094 36.1474 6.92387 33.2673 6.4383C31.4441 6.13131 29.5524 5.99184 27.7381 6.00037ZM21.9987 9.29112C23.0949 9.29112 23.9902 10.2115 23.9902 11.3431C23.9902 12.4708 23.0949 13.3827 21.9987 13.3827C20.8985 13.3827 20.0072 12.4708 20.0072 11.3431C20.0072 10.2115 20.8985 9.29112 21.9987 9.29112Z" fill="#2EF171"/>
<path d="M39.8971 17.4742V22.2414C39.8971 25.9373 36.7994 29.0481 33.267 29.0481H22.6664C19.7627 29.0481 17.3599 31.562 17.3599 34.5035V44.7261C17.3599 47.6355 19.8609 49.3468 22.6664 50.1815C26.0259 51.1807 29.2475 51.3613 33.267 50.1815C35.9389 49.3989 38.5735 47.8241 38.5735 44.7261V40.6345H27.9729V39.2707H43.8801C46.9645 39.2707 48.1139 37.0944 49.1866 33.8278C50.2946 30.4649 50.2474 27.231 49.1866 22.917C48.4243 19.811 46.9684 17.4742 43.8801 17.4742H39.8971ZM33.935 43.3622C35.0352 43.3622 35.9265 44.2741 35.9265 45.4017C35.9265 46.5334 35.0352 47.4538 33.935 47.4538C32.8387 47.4538 31.9435 46.5334 31.9435 45.4017C31.9435 44.2741 32.8387 43.3622 33.935 43.3622Z" fill="#2EF171"/>
</svg>
