<svg width="56" height="56" viewBox="0 0 56 56" fill="none" xmlns="http://www.w3.org/2000/svg">
<path fill-rule="evenodd" clip-rule="evenodd" d="M6 6H50V50H6V6ZM39.6357 42.886C37.5964 42.886 36.4433 41.8223 35.557 40.3752L32.1969 42.3273C33.4108 44.7256 35.8915 46.5555 39.7314 46.5555C43.6586 46.5555 46.5828 44.5161 46.5828 40.7935C46.5828 37.3406 44.5993 35.8048 41.0863 34.2983L40.0527 33.8555C38.2787 33.0873 37.5105 32.5851 37.5105 31.3447C37.5105 30.3411 38.278 29.5728 39.4891 29.5728C40.6764 29.5728 41.4411 30.0736 42.15 31.3447L45.3697 29.2774C44.0078 26.8819 42.1179 25.9669 39.4891 25.9669C35.7966 25.9669 33.4338 28.3276 33.4338 31.4285C33.4338 34.7949 35.4159 36.3873 38.3995 37.6584L39.4332 38.1019C41.3189 38.9267 42.4434 39.4288 42.4434 40.8466C42.4434 42.0297 41.3489 42.886 39.6357 42.886ZM23.6121 42.8602C22.1915 42.8602 21.6006 41.8859 20.9511 40.7335L17.5854 42.7711C18.5604 44.8346 20.4776 46.5478 23.7881 46.5478C27.4519 46.5478 29.962 44.5992 29.962 40.3179V26.203H25.8274V40.2621C25.8274 42.3287 24.9705 42.8602 23.6121 42.8602Z" fill="#2EF171"/>
</svg>
