<svg width="56" height="56" viewBox="0 0 56 56" fill="none" xmlns="http://www.w3.org/2000/svg">
<path d="M54 42.222C52.1085 42.7003 50.9385 42.243 49.8887 40.6756L42.4235 30.4047L41.3445 28.9827L32.6264 40.7095C31.6303 42.1202 30.5854 42.7343 28.7264 42.2349L39.8901 27.3328L29.4966 13.8721C31.2841 13.5263 32.5191 13.7025 33.616 15.2941L41.3591 25.6927L49.1591 15.3507C50.1585 13.94 51.2326 13.4035 53.0266 13.9238L48.9966 19.237L43.5366 26.3067C42.8866 27.1147 42.976 27.6673 43.574 28.4478L54 42.222ZM2.013 27.084L2.92625 22.6175C5.4125 13.7784 15.6013 10.1054 22.6278 15.5672C26.7341 18.7797 27.7546 23.3237 27.5515 28.4139H4.405C4.05725 37.5762 10.6889 43.1059 19.1438 40.2845C22.1094 39.2939 23.8563 36.9848 24.7305 34.0955C25.1741 32.6476 25.9086 32.4214 27.2769 32.8351C26.5781 36.4483 25.0019 39.4668 21.6706 41.3559C16.6932 44.1837 9.58875 43.2691 5.85125 39.3392C3.625 37.0591 2.70525 34.1698 2.2925 31.0802C2.2275 30.5695 2.0975 30.0831 2 29.5935C2.00867 28.7575 2.013 27.9216 2.013 27.0856V27.084ZM4.44725 26.4699H25.3643C25.2278 19.8446 21.0791 15.139 15.4095 15.0986C9.18575 15.0501 4.717 19.6442 4.44725 26.4699Z" fill="#2EF171"/>
</svg>
